<svg width="433" height="192" viewBox="0 0 433 192" fill="none" xmlns="http://www.w3.org/2000/svg">
<path d="M221.823 9.11C221.823 12.034 220.82 14.9293 218.813 17.796C216.864 20.6627 214.312 23.214 211.159 25.45C208.006 27.686 204.967 29.6067 202.043 31.212C199.119 32.76 196.252 34.0787 193.443 35.168C190.404 43.94 186.993 50.6767 183.209 55.378C192.497 58.99 201.326 60.796 209.697 60.796C215.258 60.796 218.039 59.2767 218.039 56.238C218.039 54.4033 217.236 53.0847 215.631 52.282C214.026 51.422 212.22 50.992 210.213 50.992C207.576 50.992 205.082 51.508 202.731 52.54L202.301 52.454L202.043 51.766L202.301 51.25C204.594 49.9313 207.26 49.272 210.299 49.272C212.879 49.272 215.086 49.9027 216.921 51.164C218.813 52.368 219.759 54.2027 219.759 56.668C219.759 59.6493 218.555 61.828 216.147 63.204C213.739 64.6373 210.93 65.354 207.719 65.354C201.126 65.354 192.468 62.602 181.747 57.098C177.963 60.538 173.405 62.258 168.073 62.258C162.97 62.258 158.269 60.8247 153.969 57.958V57.528C158.9 54.2027 164.289 52.54 170.137 52.54C173.806 52.54 177.246 53.1707 180.457 54.432C181.948 52.54 184.155 46.692 187.079 36.888C181.288 38.2067 175.211 38.866 168.847 38.866C167.127 38.866 165.436 38.8087 163.773 38.694C162.11 38.5793 160.19 38.3787 158.011 38.092C155.89 37.748 153.94 37.2607 152.163 36.63C150.443 35.942 148.809 35.1393 147.261 34.222C145.713 33.2473 144.509 31.986 143.649 30.438C142.789 28.8327 142.359 27.0553 142.359 25.106C142.359 22.7553 142.99 20.6913 144.251 18.914C145.512 17.1367 147.06 15.732 148.895 14.7C150.787 13.668 152.966 12.8367 155.431 12.206C157.896 11.518 160.161 11.088 162.225 10.916C164.346 10.6867 166.439 10.572 168.503 10.572C174.294 10.572 180.084 11.088 185.875 12.12L186.219 12.636L186.133 13.41L185.703 13.754C178.766 12.7793 173.233 12.292 169.105 12.292C167.328 12.292 165.522 12.4067 163.687 12.636C161.91 12.808 159.989 13.2093 157.925 13.84C155.918 14.4133 154.112 15.1587 152.507 16.076C150.959 16.9933 149.669 18.226 148.637 19.774C147.605 21.322 147.089 23.0993 147.089 25.106C147.089 27.5713 147.892 29.664 149.497 31.384C151.16 33.0467 153.338 34.2507 156.033 34.996C158.728 35.7413 161.193 36.2573 163.429 36.544C165.722 36.8307 168.044 36.974 170.395 36.974C175.154 36.974 180.973 36.2573 187.853 34.824C188.541 32.0147 189.315 29.32 190.175 26.74C191.035 24.1027 192.21 21.15 193.701 17.882C195.249 14.614 196.883 11.8333 198.603 9.54C200.38 7.18933 202.559 5.21133 205.139 3.606C207.776 2.00067 210.557 1.198 213.481 1.198C216.004 1.198 218.01 1.886 219.501 3.262C221.049 4.638 221.823 6.58733 221.823 9.11ZM219.243 8.164C219.243 6.50133 218.813 5.21133 217.953 4.294C217.093 3.31933 215.832 2.832 214.169 2.832C206.429 2.832 199.721 12.894 194.045 33.018C196.854 32.158 200.208 30.352 204.107 27.6C208.006 24.848 211.503 21.6373 214.599 17.968C217.695 14.2413 219.243 10.9733 219.243 8.164ZM179.339 56.066C177.218 54.862 174.867 54.26 172.287 54.26C168.904 54.26 165.55 55.98 162.225 59.42C163.486 60.2227 165.149 60.624 167.213 60.624C172.488 60.624 176.53 59.1047 179.339 56.066ZM269.702 39.124C269.702 40.672 268.354 43.3667 265.66 47.208C262.965 51.0493 259.869 54.604 256.372 57.872C252.932 61.14 250.323 62.774 248.546 62.774C247.112 62.774 245.994 62.2867 245.192 61.312C244.389 60.3373 243.988 59.1333 243.988 57.7C243.988 55.9227 245.392 51.1353 248.202 43.338C246.711 45.6313 245.478 47.4373 244.504 48.756C243.586 50.0173 242.067 51.9667 239.946 54.604C237.882 57.2413 235.875 59.2767 233.926 60.71C232.034 62.086 230.285 62.774 228.68 62.774C225.756 62.774 224.294 61.226 224.294 58.13C224.294 57.0407 224.666 55.3207 225.412 52.97L231.346 34.996C231.862 33.448 233.668 32.674 236.764 32.674C237.222 32.674 237.452 32.8747 237.452 33.276C237.452 34.7667 236.162 38.6653 233.582 44.972C231.002 51.2213 229.712 55.464 229.712 57.7C229.712 58.904 230.256 59.506 231.346 59.506C232.607 59.506 234.528 58.0727 237.108 55.206C239.688 52.3393 241.838 49.702 243.558 47.294C245.278 44.886 246.711 42.7647 247.858 40.93C248.03 40.6433 248.431 39.8407 249.062 38.522C249.692 37.146 250.323 35.9707 250.954 34.996C251.584 33.964 252.158 33.3907 252.674 33.276C252.788 33.276 253.132 33.2187 253.706 33.104C254.279 32.932 254.824 32.8173 255.34 32.76C255.856 32.6453 256.171 32.588 256.286 32.588C256.687 32.7027 256.888 32.932 256.888 33.276C256.888 34.7667 255.598 38.6367 253.018 44.886C250.495 51.078 249.234 55.292 249.234 57.528C249.234 57.9867 249.406 58.4167 249.75 58.818C250.094 59.162 250.495 59.334 250.954 59.334C253.706 59.334 259.84 52.196 269.358 37.92C269.587 38.3787 269.702 38.78 269.702 39.124ZM300.086 39.726C300.086 41.0447 299.14 43.1087 297.248 45.918C289.279 57.3273 281.224 63.032 273.082 63.032C269.986 63.032 267.435 62.0287 265.428 60.022C263.479 57.958 262.504 55.378 262.504 52.282C262.504 47.6953 264.454 43.1947 268.352 38.78C272.308 34.3653 276.551 32.158 281.08 32.158C282.972 32.158 284.606 32.6453 285.982 33.62C287.358 34.5947 288.046 35.9993 288.046 37.834C288.046 39.2673 287.502 40.5 286.412 41.532C285.323 42.5067 284.062 42.994 282.628 42.994C281.482 42.994 280.622 42.5927 280.048 41.79C282.17 40.7007 283.23 39.1813 283.23 37.232C283.23 35.1107 282.313 34.05 280.478 34.05C278.357 34.05 276.35 35.254 274.458 37.662C272.566 40.07 271.104 42.736 270.072 45.66C269.098 48.5267 268.61 50.992 268.61 53.056C268.61 55.3493 269.184 57.184 270.33 58.56C271.477 59.8787 273.168 60.538 275.404 60.538C277.698 60.538 280.106 59.7927 282.628 58.302C285.151 56.754 287.53 54.7473 289.766 52.282C292.002 49.7593 293.923 47.4373 295.528 45.316C297.134 43.1373 298.624 40.93 300 38.694C300.058 38.9233 300.086 39.2673 300.086 39.726ZM331.323 39.554C331.323 41.102 330.09 43.596 327.625 47.036C324.471 51.3933 320.859 55.1487 316.789 58.302C312.718 61.4553 308.533 63.032 304.233 63.032C301.079 63.032 298.614 62.0287 296.837 60.022C295.059 58.0153 294.171 55.4353 294.171 52.282C294.171 47.81 296.005 43.338 299.675 38.866C303.401 34.394 307.472 32.158 311.887 32.158C313.721 32.158 315.355 32.7027 316.789 33.792C318.222 34.8813 318.939 36.3147 318.939 38.092C318.939 39.9267 318.251 41.7327 316.875 43.51C315.499 45.23 313.75 46.7207 311.629 47.982C309.507 49.2433 307.472 50.3327 305.523 51.25C303.573 52.11 301.71 52.798 299.933 53.314C299.933 55.4353 300.477 57.184 301.567 58.56C302.713 59.936 304.319 60.624 306.383 60.624C308.676 60.624 311.113 59.85 313.693 58.302C316.273 56.754 318.652 54.7473 320.831 52.282C323.067 49.7593 324.987 47.4087 326.593 45.23C328.255 42.994 329.746 40.758 331.065 38.522C331.237 38.866 331.323 39.21 331.323 39.554ZM313.865 37.49C313.865 35.3113 312.919 34.222 311.027 34.222C309.02 34.222 307.157 35.3687 305.437 37.662C303.717 39.898 302.455 42.22 301.653 44.628C300.85 47.036 300.277 49.272 299.933 51.336C303.545 50.5333 306.755 48.8707 309.565 46.348C312.431 43.8253 313.865 40.8727 313.865 37.49Z" fill="#463A3C"/>
<path d="M46.8906 134.266H22.1406L15.2969 152.594L23.1719 155.078V157H0.8125V155.078L8.96875 151.703L33.4375 87.8594H37.75L62.8281 151.703L70.5156 155.078V157H46.5156V155.078L54.1094 152.594L46.8906 134.266ZM34.1406 102.203L24.0625 129.25H44.9688L34.5156 102.203H34.1406ZM134.031 87.8594H152.781V89.7812L144.625 93.1562V151.703L153.25 155.078V157H129.719V155.078L137.219 151.703V97.9375H136.656L114.578 157H109.844L88.75 97.75H88.2812V151.234L95.9219 155.078V157H73.8438V155.078L82 151.234V93.1562L73.375 89.7812V87.8594H95.7344L95.9219 92.3125L113.125 142.234H113.5L134.031 87.8594Z" fill="#463A3C"/>
<path d="M355.297 157L340.531 128.031C339.625 128.156 338.688 128.25 337.719 128.312C336.781 128.375 335.812 128.406 334.812 128.406C333.656 128.406 332.469 128.359 331.25 128.266C330.062 128.172 328.828 128.047 327.547 127.891V151.703L338.141 155.078V157H310.297V155.078L318.922 151.703V93.1562L310.297 89.7812V87.8594H336.688C340.75 87.8594 344.359 88.3281 347.516 89.2656C350.672 90.1719 353.328 91.4688 355.484 93.1562C357.672 94.8438 359.328 96.875 360.453 99.25C361.578 101.594 362.141 104.203 362.141 107.078C362.141 111.297 361.047 115.047 358.859 118.328C356.703 121.578 353.5 124.062 349.25 125.781L362.891 152.406L369.781 155.078V157H355.297ZM338.047 92.7812H327.547V122.922C328.828 123.078 330.031 123.203 331.156 123.297C332.312 123.359 333.438 123.391 334.531 123.391C346.594 123.391 352.625 118.203 352.625 107.828C352.625 102.797 351.375 99.0312 348.875 96.5312C346.375 94.0312 342.766 92.7812 338.047 92.7812ZM377.984 157V155.078L386.609 151.703V93.1562L377.984 89.7812V87.8594H416.094L425 86.6406L426.453 87.8594V106.703H424.531L418.578 92.875H395.75V119.266L415.203 118.328L417.031 118.984L416.094 125.219L395.75 124.469V152.031H419.516L425.469 138.203H427.391V157H377.984Z" fill="#463A3C"/>
<path d="M256.528 118.944C256.528 120.672 255.152 123.456 252.4 127.296C248.88 132.16 244.848 136.352 240.304 139.872C235.76 143.392 231.088 145.152 226.288 145.152C222.768 145.152 220.016 144.032 218.032 141.792C216.048 139.552 215.056 136.672 215.056 133.152C215.056 128.16 217.104 123.168 221.2 118.176C225.36 113.184 229.904 110.688 234.832 110.688C236.88 110.688 238.704 111.296 240.304 112.512C241.904 113.728 242.704 115.328 242.704 117.312C242.704 119.36 241.936 121.376 240.4 123.36C238.864 125.28 236.912 126.944 234.544 128.352C232.176 129.76 229.904 130.976 227.728 132C225.552 132.96 223.472 133.728 221.488 134.304C221.488 136.672 222.096 138.624 223.312 140.16C224.592 141.696 226.384 142.464 228.688 142.464C231.248 142.464 233.968 141.6 236.848 139.872C239.728 138.144 242.384 135.904 244.816 133.152C247.312 130.336 249.456 127.712 251.248 125.28C253.104 122.784 254.768 120.288 256.24 117.792C256.432 118.176 256.528 118.56 256.528 118.944ZM237.04 116.64C237.04 114.208 235.984 112.992 233.872 112.992C231.632 112.992 229.552 114.272 227.632 116.832C225.712 119.328 224.304 121.92 223.408 124.608C222.512 127.296 221.872 129.792 221.488 132.096C225.52 131.2 229.104 129.344 232.24 126.528C235.44 123.712 237.04 120.416 237.04 116.64Z" fill="#463A3C"/>
<path d="M189.245 71.891C185.695 72.9528 182.637 74.5574 179.366 77.0892C171.086 83.5089 166.14 94.2518 165.371 107.483C164.915 115.119 166.247 121.389 169.529 127.179C170.842 129.481 173.812 133.288 176.029 135.512C180.362 139.807 185.175 143.295 195.837 149.819C205.054 155.454 211.108 160.114 216.864 165.961C222.604 171.811 227.187 178.033 228.482 181.709C228.603 182.049 228.673 181.965 229.115 180.974C231.681 175.203 241.026 165.031 250.645 157.509C253.849 154.991 256.73 153.023 262.067 149.728C264.902 147.96 268.06 145.989 269.076 145.351C282.878 136.639 289.273 129.385 291.87 119.463C293.041 115.03 293.272 111.012 292.733 104.808C292.513 102.337 291.406 97.0108 290.612 94.6213C287.144 84.29 280.425 76.9374 271.348 73.5456C268.029 72.3065 264.174 71.6783 260.406 71.7435C257.882 71.7836 253.259 72.6802 250.806 73.5904C244.211 76.0634 238.743 80.3387 234.15 86.6399C232.643 88.7125 231.089 91.332 229.972 93.7075C229.437 94.8385 229.224 95.1589 229.11 94.939C229.047 94.7957 228.629 93.9261 228.201 93.0064C223.893 83.6766 216.698 76.3679 208.475 72.995C202.363 70.4627 195.364 70.0688 189.245 71.891ZM203.113 82.1913C205.587 82.248 208.221 82.6711 210.283 83.3485C213.722 84.4941 217.649 86.8593 220.511 89.5261C223.315 92.1696 226.635 96.8595 228.518 100.868L229.197 102.344L230.051 100.559C232.608 95.2576 236.912 90.2804 241.496 87.2934C249.578 82.041 259.13 81.5911 267.471 86.0675C272.159 88.5917 276.437 93.4704 278.889 99.0985C281.762 105.7 282.732 115.164 281.204 121.784C279.99 126.954 277.266 131.596 272.984 135.736C269.571 139.025 266.34 141.323 256.886 147.164C248.834 152.133 244.094 155.811 238.281 161.647C233.852 166.094 229.988 171.017 229.104 173.346C228.706 174.38 228.549 174.464 228.411 173.78C228.076 172.114 223.703 165.901 220.471 162.512C214.577 156.328 210.088 152.897 198.365 145.581C193.863 142.776 190.676 140.557 188.319 138.586C179.881 131.563 176.23 124.286 176.283 114.563C176.32 107.081 178.37 99.523 181.897 94.0435C186.738 86.4782 194.734 82.0061 203.113 82.1913Z" fill="#463A3C"/>
</svg>
